<?xml version="1.0" standalone="no"?>
<!DOCTYPE svg PUBLIC "-//W3C//DTD SVG 20010904//EN"
 "http://www.w3.org/TR/2001/REC-SVG-20010904/DTD/svg10.dtd">
<svg version="1.0" xmlns="http://www.w3.org/2000/svg"
 width="3511.000000pt" height="3511.000000pt" viewBox="0 0 3511.000000 3511.000000"
 preserveAspectRatio="xMidYMid meet">
<metadata>
Created by potrace 1.11, written by Peter Selinger 2001-2013
</metadata>
<g transform="translate(0.000000,3511.000000) scale(0.100000,-0.100000)"
fill="#000000" stroke="none">
<path d="M17075 34644 c-393 -17 -590 -27 -765 -40 -3460 -251 -6739 -1541
-9445 -3715 -511 -410 -878 -741 -1385 -1249 -508 -507 -839 -874 -1249 -1385
-2175 -2707 -3467 -5994 -3716 -9450 -32 -454 -39 -676 -39 -1245 0 -569 7
-791 39 -1245 249 -3456 1541 -6743 3716 -9450 410 -511 741 -878 1249 -1385
640 -641 1169 -1101 1860 -1616 868 -648 1673 -1143 2655 -1629 1855 -920
3824 -1481 5905 -1685 582 -56 981 -74 1660 -74 569 0 791 7 1245 39 3456 249
6742 1541 9450 3716 511 410 878 741 1385 1249 508 507 839 874 1249 1385
2175 2707 3467 5994 3716 9450 32 454 39 676 39 1245 0 569 -7 791 -39 1245
-249 3456 -1541 6743 -3716 9450 -410 511 -741 878 -1249 1385 -507 508 -874
839 -1385 1249 -2465 1980 -5412 3231 -8540 3626 -406 51 -856 90 -1320 115
-187 11 -1164 21 -1320 14z m-9227 -10180 l22 -15 0 -1145 0 -1144 935 0 c922
0 935 0 955 -20 24 -24 25 -38 4 -68 l-15 -22 -940 0 -939 0 0 -1144 c0 -1325
2 -1358 86 -1638 203 -678 751 -1175 1459 -1324 121 -26 147 -28 365 -28 214
0 246 3 360 26 395 82 724 261 1000 544 210 216 355 452 449 730 33 99 76 301
86 404 10 98 13 121 19 128 11 10 6 -3877 -4 -3998 -27 -301 -139 -621 -308
-881 -507 -777 -1472 -1097 -2337 -774 -384 143 -729 421 -958 770 -154 236
-251 488 -297 775 -20 123 -20 166 -20 3268 l0 3142 -399 0 c-434 0 -431 0
-431 55 0 54 11 55 437 55 l393 0 0 1144 0 1145 22 15 c12 9 25 16 28 16 3 0
16 -7 28 -16z m5245 -2 c16 -17 17 -245 19 -3022 l3 -3003 28 74 c16 41 53
121 83 178 293 559 824 940 1446 1037 155 25 432 25 588 0 808 -127 1447 -735
1627 -1546 l27 -125 6 -2000 c3 -1100 2 -2020 -1 -2045 l-6 -45 -2 50 c-3 119
-48 329 -106 495 -94 270 -231 492 -437 705 -307 320 -680 513 -1120 581 -234
37 -534 20 -773 -42 -457 -118 -869 -412 -1136 -809 -167 -249 -298 -612 -316
-876 -3 -54 -10 -99 -15 -99 -4 0 -8 2356 -8 5235 0 5222 0 5235 20 5255 25
25 52 26 73 2z m10539 -1281 c110 -52 174 -161 165 -282 -14 -209 -228 -332
-415 -238 -97 48 -151 128 -160 235 -11 137 76 258 218 305 42 14 142 3 192
-20z m-2776 -1057 c169 -33 286 -73 449 -154 176 -88 302 -177 430 -305 216
-215 320 -436 398 -839 l21 -111 4 -2380 c3 -2398 1 -2532 -33 -2730 -53 -308
-172 -585 -364 -845 -75 -102 -257 -288 -364 -371 -603 -468 -1405 -551 -2077
-214 -481 241 -825 638 -994 1145 -109 327 -109 332 -97 1940 9 1251 11 1331
29 1430 64 341 182 580 392 791 154 156 327 254 645 365 129 45 445 136 445
128 0 -2 -41 -24 -90 -49 -194 -95 -333 -216 -448 -389 -78 -117 -126 -231
-154 -366 -29 -136 -21 -338 16 -464 112 -375 407 -651 814 -763 93 -25 107
-27 347 -27 279 0 347 10 575 80 545 169 999 626 1156 1164 63 213 64 232 64
950 0 618 -1 663 -21 771 -82 461 -341 799 -775 1013 -202 99 -527 163 -784
153 -487 -19 -1025 -213 -1599 -579 -85 -54 -160 -98 -166 -98 -28 0 -55 32
-55 66 0 32 6 38 68 78 206 133 543 309 773 403 519 213 1003 285 1395 207z
m2686 19 c17 -15 18 -67 18 -1234 0 -1301 0 -1311 50 -1524 81 -345 258 -664
510 -915 272 -272 601 -448 985 -527 118 -24 151 -26 360 -27 201 0 245 3 345
23 486 97 896 354 1184 741 209 280 331 596 371 960 10 96 13 -216 14 -1884 1
-1763 -1 -2011 -15 -2105 -49 -333 -183 -648 -393 -918 -109 -141 -306 -326
-451 -422 -743 -498 -1684 -447 -2372 128 -342 287 -579 697 -666 1156 l-26
140 -3 3189 c-3 2859 -2 3191 12 3212 18 28 51 31 77 7z m-10912 -9437 c188
-22 323 -57 444 -118 274 -137 421 -371 472 -748 20 -152 19 -808 -1 -963 -65
-497 -311 -754 -810 -849 -104 -20 -152 -23 -370 -23 -222 0 -263 3 -364 23
-271 55 -436 135 -566 273 -126 134 -195 286 -235 518 -18 101 -20 160 -20
541 0 380 2 441 20 543 21 123 60 248 105 337 118 232 357 391 680 450 168 31
449 38 645 16z m5867 -1 c149 -14 505 -69 524 -80 5 -4 9 -154 9 -362 l0 -356
-32 6 c-18 3 -87 17 -153 31 -312 65 -638 93 -791 67 -126 -22 -222 -81 -264
-161 -38 -74 -41 -111 -41 -512 1 -320 3 -404 16 -451 29 -113 97 -177 208
-196 69 -12 285 -15 336 -5 l31 7 0 149 0 149 -147 -2 -148 -1 -3 296 -2 296
535 0 535 0 0 -719 c0 -396 -3 -722 -8 -725 -17 -10 -336 -77 -457 -95 -239
-36 -358 -44 -583 -38 -234 5 -385 26 -539 72 -431 132 -641 427 -673 950 -12
201 -12 475 0 670 35 556 289 860 815 975 219 47 556 62 832 35z m-9498 -586
c124 -308 228 -562 231 -564 3 -2 22 38 42 88 20 51 65 160 99 242 118 289
221 541 271 668 l51 127 499 0 498 0 0 -1320 0 -1320 -420 0 -420 0 -2 655 -3
656 -99 -263 c-55 -145 -123 -326 -152 -403 -28 -77 -57 -152 -63 -167 l-11
-28 -294 0 -294 0 -10 28 c-6 15 -74 196 -152 402 -78 206 -147 391 -153 410
-9 27 -13 -108 -15 -627 l-2 -663 -415 0 -415 0 0 1320 0 1320 503 0 502 0
224 -561z m5943 426 c38 -71 104 -197 147 -280 85 -163 142 -271 201 -380 44
-83 128 -242 196 -375 l49 -95 3 633 2 632 410 0 410 0 0 -1320 0 -1320 -412
2 -413 3 -25 50 c-14 28 -58 111 -97 185 -39 74 -142 270 -228 435 -87 165
-192 365 -234 445 l-76 145 -3 -632 -2 -633 -410 0 -410 0 0 1320 0 1320 411
-2 411 -3 70 -130z m5540 -332 l3 -468 41 -3 41 -3 100 153 c137 209 228 368
339 596 l95 192 485 0 486 0 -63 -117 c-183 -347 -430 -751 -632 -1031 l-59
-83 104 -157 c125 -189 261 -415 390 -652 107 -195 298 -574 298 -590 0 -7
-171 -9 -517 -8 l-517 3 -49 110 c-125 285 -296 608 -425 803 -33 49 -37 52
-78 52 l-44 0 0 -485 0 -485 -430 0 -430 0 0 1320 0 1320 430 0 430 0 2 -467z
m2890 -450 c4 -1011 0 -960 66 -1028 38 -38 93 -55 182 -55 89 0 144 17 182
55 66 68 62 17 66 1028 l3 917 444 0 445 0 0 -892 c0 -517 -4 -929 -10 -978
-14 -126 -45 -233 -96 -339 -38 -79 -60 -108 -132 -180 -137 -136 -278 -206
-513 -257 -107 -23 -153 -27 -339 -30 -118 -2 -251 1 -295 7 -202 25 -375 80
-513 161 -67 39 -194 162 -239 231 -45 69 -92 187 -116 292 -20 87 -21 121
-24 1038 l-4 947 445 0 445 0 3 -917z m3998 562 l0 -355 -325 0 -325 0 0 -965
0 -965 -435 0 -435 0 0 965 0 965 -325 0 -325 0 0 355 0 355 1085 0 1085 0 0
-355z"/>
<path d="M12250 12031 c-114 -37 -161 -114 -178 -286 -4 -44 -4 -251 -1 -460
4 -319 8 -388 22 -431 25 -76 56 -116 112 -144 45 -22 62 -25 165 -25 104 0
120 2 165 26 118 60 135 142 134 649 0 507 -16 587 -129 649 -38 22 -60 25
-155 28 -60 1 -121 -1 -135 -6z"/>
</g>
</svg>
